<?xml version="1.0" standalone="no"?>
<!DOCTYPE svg PUBLIC "-//W3C//DTD SVG 20010904//EN"
 "http://www.w3.org/TR/2001/REC-SVG-20010904/DTD/svg10.dtd">
<svg version="1.0" xmlns="http://www.w3.org/2000/svg"
 width="1064.000000pt" height="708.000000pt" viewBox="0 0 1064.000000 708.000000"
 preserveAspectRatio="xMidYMid meet">

<g transform="translate(0.000000,708.000000) scale(0.100000,-0.100000)"
fill="#000000" stroke="none">
<path d="M2430 6659 c-131 -19 -331 -101 -460 -189 -110 -75 -193 -183 -245
-322 -16 -42 -21 -48 -75 -67 -32 -12 -91 -43 -131 -69 -187 -123 -288 -309
-289 -533 0 -73 -1 -77 -46 -140 -94 -130 -134 -259 -134 -426 0 -148 30 -252
99 -342 24 -32 26 -43 33 -190 7 -173 16 -207 78 -312 72 -121 169 -199 307
-245 93 -31 94 -32 131 -97 61 -108 204 -222 327 -261 126 -39 332 -47 530
-20 64 9 118 14 121 12 2 -3 3 -125 2 -273 l-3 -268 -54 44 c-192 156 -326
219 -676 312 -263 70 -659 136 -708 118 -36 -14 -47 -61 -47 -205 l0 -118 -53
6 c-69 9 -84 2 -97 -42 -11 -40 -14 -274 -4 -334 8 -47 1 -45 339 -92 294 -41
597 -86 825 -122 l155 -24 170 -86 c94 -47 186 -88 206 -91 30 -4 61 8 215 86
170 87 185 92 294 110 137 23 672 102 890 131 200 27 311 47 325 61 6 6 10 78
10 190 0 180 0 181 -25 201 -20 16 -33 18 -82 13 l-58 -7 0 114 c0 121 -11
186 -32 199 -25 16 -130 9 -331 -22 -236 -36 -371 -69 -597 -146 -226 -76
-292 -111 -438 -225 -40 -32 -78 -58 -83 -58 -11 0 -11 113 -2 373 l6 188 56
37 c41 28 73 62 124 137 38 55 76 115 84 133 10 24 17 105 23 275 7 175 14
254 25 287 9 25 45 83 80 130 36 47 88 128 115 181 l50 97 212 4 c160 4 222 8
248 20 49 21 179 126 281 228 80 79 88 89 99 143 7 37 10 133 8 270 l-3 212
-29 49 c-16 27 -94 114 -173 192 l-143 143 5 53 c11 95 -42 158 -138 166 -70
6 -116 -16 -145 -67 -26 -46 -28 -100 -6 -147 27 -57 54 -73 168 -99 20 -4 81
-57 188 -163 l158 -156 0 -215 0 -216 -150 -143 -150 -142 -203 2 -202 3 -6
95 c-12 173 -72 302 -204 436 -64 64 -98 90 -165 123 -47 22 -114 47 -150 54
l-65 13 -1 434 c-1 493 -2 501 -69 567 l-42 43 -109 -1 c-60 -1 -134 -5 -164
-10z m237 -139 c10 -19 13 -130 13 -457 l0 -433 -27 -5 c-250 -53 -453 -230
-526 -460 -18 -58 -22 -93 -22 -205 0 -183 25 -254 151 -437 120 -174 116
-160 125 -431 4 -130 12 -254 18 -274 7 -20 27 -58 46 -85 31 -43 47 -68 92
-147 18 -31 1 -35 -192 -35 -236 -1 -341 28 -453 124 -92 79 -124 155 -142
334 -5 57 -15 110 -21 118 -18 20 -76 17 -89 -6 -5 -11 -10 -56 -10 -100 0
-71 -2 -81 -18 -81 -29 0 -113 46 -163 90 -99 85 -144 188 -151 343 -3 74 -2
78 17 72 11 -3 77 -8 147 -12 123 -6 128 -7 152 -34 106 -118 290 -51 290 106
0 115 -113 194 -221 155 -15 -6 -44 -29 -64 -51 -24 -27 -48 -43 -75 -49 -52
-13 -156 -12 -189 0 -66 25 -138 110 -165 194 -45 142 -17 368 61 477 l21 30
53 -51 c59 -55 94 -64 119 -29 17 25 13 38 -26 97 -54 79 -70 129 -70 213 0
126 43 242 121 330 48 55 166 138 201 141 23 3 25 -1 30 -50 6 -57 18 -72 62
-72 37 0 47 22 59 128 13 120 32 179 80 251 89 133 261 243 464 296 120 32
128 33 215 31 69 -1 75 -3 87 -26z m247 -1045 c174 -60 308 -217 352 -411 37
-169 -11 -322 -158 -507 -84 -104 -128 -214 -128 -318 0 -78 -1 -79 -98 -79
l-85 0 6 143 c10 218 44 320 141 426 60 66 72 104 36 116 -30 9 -105 -30 -138
-73 -16 -20 -45 -68 -64 -107 l-36 -69 -36 71 c-20 40 -50 88 -67 107 -67 77
-151 100 -157 45 -2 -21 10 -41 52 -89 31 -35 74 -98 95 -141 41 -82 43 -93
56 -326 l5 -103 -88 0 -89 0 -6 88 c-8 115 -27 173 -81 252 -195 282 -199 292
-200 465 l-1 130 41 85 c54 111 110 179 192 234 108 71 166 87 297 82 68 -2
129 -10 159 -21z m-1143 -935 c26 -14 24 -55 -3 -74 -19 -13 -25 -14 -43 -2
-27 18 -32 56 -9 73 22 16 30 16 55 3z m1204 -583 c0 -117 -1 -117 -224 -117
-97 0 -186 3 -198 6 -25 7 -30 24 -39 123 l-7 71 234 -2 234 -3 0 -78z m-130
-277 c0 -21 -63 -60 -97 -60 -42 0 -118 46 -118 72 0 5 48 7 108 6 86 -2 107
-6 107 -18z m-1290 -446 c88 -14 240 -46 338 -70 383 -96 529 -170 693 -347
62 -68 121 -148 98 -135 -5 3 -39 24 -77 47 -264 161 -378 193 -1012 286 -132
19 -250 37 -262 40 -22 5 -23 10 -23 104 0 54 3 101 7 105 8 8 12 7 238 -30z
m2623 -71 l-3 -107 -321 -47 c-555 -82 -665 -114 -928 -262 -64 -36 -116 -60
-116 -54 1 24 137 177 204 231 152 121 420 219 796 290 223 43 293 54 333 55
l38 1 -3 -107z"/>
<path d="M2293 6360 c-101 -32 -133 -207 -50 -275 18 -15 40 -33 50 -41 14
-11 17 -30 17 -97 l0 -83 -63 -47 c-81 -59 -98 -65 -231 -82 -61 -8 -128 -19
-150 -25 -52 -16 -116 -78 -157 -152 l-34 -63 3 -124 2 -124 -43 -46 c-50 -53
-64 -100 -48 -158 22 -79 106 -134 185 -119 67 13 136 96 136 163 0 28 -18 63
-74 142 -24 34 -30 56 -38 131 -11 115 -1 156 51 203 41 37 49 39 206 57 150
18 162 24 333 171 l42 36 0 100 c0 91 2 103 25 134 68 93 82 171 43 229 -41
59 -134 91 -205 70z m91 -116 c20 -8 21 -48 2 -63 -20 -17 -67 -10 -80 11 -8
13 -6 22 8 37 19 21 42 26 70 15z m-610 -1133 c23 -26 17 -54 -14 -61 -51 -14
-78 24 -43 62 21 23 36 23 57 -1z"/>
<path d="M2034 4194 c-15 -22 -16 -45 -11 -177 3 -84 10 -164 16 -179 21 -56
95 -43 107 20 8 44 -13 318 -27 343 -15 29 -65 25 -85 -7z"/>
<path d="M3081 6512 c-45 -24 -71 -74 -71 -135 0 -39 6 -56 33 -92 34 -44 34
-44 41 -191 7 -158 14 -180 66 -229 18 -16 92 -94 165 -171 l132 -142 5 -56
c5 -63 30 -99 85 -122 55 -24 105 -18 159 19 41 27 51 39 61 79 15 64 3 113
-41 157 -34 34 -40 36 -113 40 l-78 3 -162 161 -163 161 0 90 c0 115 10 150
57 198 35 36 38 43 37 92 -2 95 -43 142 -129 152 -38 4 -58 1 -84 -14z"/>
<path d="M4180 4751 c-51 -27 -73 -56 -79 -104 l-6 -42 -121 -6 c-66 -4 -131
-12 -145 -19 -13 -7 -66 -52 -118 -99 -132 -122 -180 -159 -216 -165 -46 -9
-89 -58 -88 -100 1 -44 21 -84 54 -109 54 -39 169 12 169 76 0 26 43 80 164
205 l70 72 214 0 c238 0 268 6 302 62 30 50 28 139 -5 183 -49 63 -127 81
-195 46z"/>
<path d="M4045 4191 c-76 -19 -101 -50 -111 -136 -8 -76 -24 -101 -127 -204
l-85 -83 -104 3 c-85 4 -110 8 -141 27 -72 42 -156 21 -192 -48 -21 -41 -19
-82 8 -121 45 -67 107 -76 181 -27 45 29 57 32 160 38 61 3 122 12 135 19 13
7 67 54 120 104 122 115 142 127 210 127 52 0 57 2 98 46 39 42 43 52 43 96 0
27 -6 64 -14 82 -24 57 -111 95 -181 77z"/>
<path d="M2527 1970 c-281 -51 -334 -72 -439 -169 -118 -109 -185 -274 -195
-478 -19 -382 162 -621 472 -625 188 -2 347 96 433 267 50 101 49 278 -1 389
-102 222 -439 292 -642 134 -22 -17 -46 -36 -54 -42 -11 -9 -13 -6 -6 14 31
105 120 222 197 258 58 27 125 39 302 57 82 8 150 16 152 17 9 10 -47 211 -58
207 -2 -1 -74 -14 -161 -29z m-61 -585 c44 -18 102 -72 124 -116 28 -54 34
-107 20 -175 -32 -154 -119 -223 -267 -211 -74 6 -116 28 -160 85 -40 53 -57
108 -57 188 0 77 30 140 89 189 75 61 164 75 251 40z"/>
<path d="M900 1954 c-227 -61 -414 -250 -466 -471 -25 -106 -15 -277 21 -368
81 -201 246 -346 455 -401 102 -26 245 -22 355 11 126 37 200 79 275 155 199
202 245 488 119 739 -64 129 -193 251 -323 305 -106 44 -326 59 -436 30z m267
-195 c116 -20 224 -111 289 -244 35 -72 45 -209 21 -300 -31 -121 -120 -235
-220 -280 -66 -30 -176 -48 -244 -40 -121 15 -254 121 -316 252 -31 65 -32 73
-32 193 0 120 1 127 32 190 56 114 161 203 270 229 54 13 127 13 200 0z"/>
<path d="M9183 1952 c-7 -5 -126 -278 -264 -608 -138 -329 -253 -605 -256
-611 -4 -10 24 -13 119 -13 l125 0 56 143 56 142 267 3 c178 1 271 -1 278 -8
6 -6 34 -70 62 -143 l50 -132 123 -3 123 -3 -8 23 c-7 23 -159 389 -384 926
l-123 292 -106 0 c-58 0 -112 -4 -118 -8z m133 -299 c38 -90 164 -432 164
-447 0 -14 -15 -16 -97 -17 -145 -1 -277 2 -281 6 -11 11 177 495 193 495 2 0
12 -17 21 -37z"/>
<path d="M10070 1340 l0 -620 115 0 115 0 0 620 0 620 -115 0 -115 0 0 -620z"/>
<path d="M3435 1631 c-49 -12 -114 -50 -160 -92 -23 -21 -45 -39 -49 -39 -3 0
-6 27 -6 60 l0 60 -100 0 -100 0 0 -640 0 -641 103 3 102 3 3 244 2 243 45
-36 c159 -131 388 -128 541 7 85 75 132 180 141 318 14 212 -73 397 -223 472
-78 39 -220 57 -299 38z m156 -199 c62 -32 113 -94 130 -155 6 -23 9 -82 7
-132 -3 -76 -8 -98 -33 -145 -42 -76 -103 -113 -196 -118 -85 -5 -140 19 -199
85 -49 56 -60 93 -60 209 0 76 4 98 25 140 66 133 202 181 326 116z"/>
<path d="M4375 1633 c-11 -2 -61 -18 -111 -35 l-91 -30 -6 -91 c-3 -50 -4 -93
-2 -95 2 -2 36 12 77 32 83 39 189 61 255 52 58 -8 130 -40 153 -68 24 -29 44
-108 32 -120 -5 -5 -82 -13 -170 -18 -246 -13 -277 -23 -355 -110 -53 -59 -62
-90 -55 -189 8 -112 54 -181 158 -237 28 -15 56 -19 140 -19 118 0 157 13 243
78 26 21 49 37 52 37 3 0 5 -22 5 -50 l0 -50 105 0 105 0 0 203 c-1 111 -5
264 -9 339 -10 163 -25 203 -107 277 -79 72 -142 94 -284 97 -63 2 -124 0
-135 -3z m319 -550 c-10 -73 -50 -150 -92 -179 -52 -35 -134 -57 -182 -49 -80
14 -127 99 -99 179 27 76 74 93 262 95 l118 1 -7 -47z"/>
<path d="M5285 1615 c-139 -41 -155 -50 -155 -89 0 -34 17 -136 24 -143 2 -2
41 15 86 38 140 70 280 76 329 12 23 -28 27 -82 10 -115 -14 -26 -68 -48 -121
-48 -24 0 -60 -3 -80 -6 l-38 -7 0 -78 0 -79 84 0 c96 0 138 -12 160 -45 19
-29 21 -84 4 -119 -39 -88 -256 -88 -415 0 l-63 34 0 -100 0 -99 96 -31 c228
-73 459 -37 554 85 19 25 38 55 42 67 13 47 8 143 -11 183 -17 38 -73 96 -103
108 -9 3 2 19 33 46 74 65 99 163 64 249 -59 139 -284 201 -500 137z"/>
<path d="M5890 1616 c0 -3 60 -146 133 -318 74 -172 163 -384 198 -470 l63
-158 -20 -27 c-40 -53 -107 -90 -178 -98 l-66 -7 0 -99 0 -99 48 6 c122 14
191 35 245 75 85 63 121 120 211 336 104 250 336 837 336 852 0 7 -36 11 -114
11 l-113 0 -65 -182 c-36 -101 -89 -255 -118 -343 l-53 -160 -17 38 c-10 22
-69 176 -131 343 l-114 304 -122 0 c-68 0 -123 -2 -123 -4z"/>
<path d="M7000 1170 l0 -450 100 0 100 0 1 78 c1 42 4 183 8 312 l6 235 124
-229 124 -228 51 6 c28 3 61 6 73 6 18 0 43 38 146 225 l124 225 6 -157 c4
-87 7 -229 7 -315 l0 -158 105 0 105 0 0 450 0 451 -132 -3 -133 -3 -115 -206
c-164 -293 -159 -285 -175 -268 -7 8 -41 66 -75 129 -34 63 -91 168 -127 233
l-65 117 -129 0 -129 0 0 -450z"/>
<path d="M8354 960 c-29 -12 -53 -53 -60 -102 -10 -76 49 -138 131 -138 52 0
84 17 112 59 43 64 23 140 -47 176 -31 16 -102 19 -136 5z"/>
</g>
</svg>
