<svg version="1.1" xmlns="http://www.w3.org/2000/svg" xmlns:xlink="http://www.w3.org/1999/xlink" width="1064.000000pt" height="708.000000pt" viewBox="0,0,256,170.33751"><g fill="#ffffff" fill-rule="nonzero" stroke="none" stroke-width="1" stroke-linecap="butt" stroke-linejoin="miter" stroke-miterlimit="10" stroke-dasharray="" stroke-dashoffset="0" font-family="none" font-weight="none" font-size="none" text-anchor="none" style="mix-blend-mode: normal"><g transform="translate(-0.9644,-0.85831) scale(0.2406,0.2406)"><g transform="translate(0,708) scale(0.1,-0.1)"><path d="M2430,6659c-131,-19 -331,-101 -460,-189c-110,-75 -193,-183 -245,-322c-16,-42 -21,-48 -75,-67c-32,-12 -91,-43 -131,-69c-187,-123 -288,-309 -289,-533c0,-73 -1,-77 -46,-140c-94,-130 -134,-259 -134,-426c0,-148 30,-252 99,-342c24,-32 26,-43 33,-190c7,-173 16,-207 78,-312c72,-121 169,-199 307,-245c93,-31 94,-32 131,-97c61,-108 204,-222 327,-261c126,-39 332,-47 530,-20c64,9 118,14 121,12c2,-3 3,-125 2,-273l-3,-268l-54,44c-192,156 -326,219 -676,312c-263,70 -659,136 -708,118c-36,-14 -47,-61 -47,-205v-118l-53,6c-69,9 -84,2 -97,-42c-11,-40 -14,-274 -4,-334c8,-47 1,-45 339,-92c294,-41 597,-86 825,-122l155,-24l170,-86c94,-47 186,-88 206,-91c30,-4 61,8 215,86c170,87 185,92 294,110c137,23 672,102 890,131c200,27 311,47 325,61c6,6 10,78 10,190c0,180 0,181 -25,201c-20,16 -33,18 -82,13l-58,-7v114c0,121 -11,186 -32,199c-25,16 -130,9 -331,-22c-236,-36 -371,-69 -597,-146c-226,-76 -292,-111 -438,-225c-40,-32 -78,-58 -83,-58c-11,0 -11,113 -2,373l6,188l56,37c41,28 73,62 124,137c38,55 76,115 84,133c10,24 17,105 23,275c7,175 14,254 25,287c9,25 45,83 80,130c36,47 88,128 115,181l50,97l212,4c160,4 222,8 248,20c49,21 179,126 281,228c80,79 88,89 99,143c7,37 10,133 8,270l-3,212l-29,49c-16,27 -94,114 -173,192l-143,143l5,53c11,95 -42,158 -138,166c-70,6 -116,-16 -145,-67c-26,-46 -28,-100 -6,-147c27,-57 54,-73 168,-99c20,-4 81,-57 188,-163l158,-156v-215v-216l-150,-143l-150,-142l-203,2l-202,3l-6,95c-12,173 -72,302 -204,436c-64,64 -98,90 -165,123c-47,22 -114,47 -150,54l-65,13l-1,434c-1,493 -2,501 -69,567l-42,43l-109,-1c-60,-1 -134,-5 -164,-10zM2667,6520c10,-19 13,-130 13,-457v-433l-27,-5c-250,-53 -453,-230 -526,-460c-18,-58 -22,-93 -22,-205c0,-183 25,-254 151,-437c120,-174 116,-160 125,-431c4,-130 12,-254 18,-274c7,-20 27,-58 46,-85c31,-43 47,-68 92,-147c18,-31 1,-35 -192,-35c-236,-1 -341,28 -453,124c-92,79 -124,155 -142,334c-5,57 -15,110 -21,118c-18,20 -76,17 -89,-6c-5,-11 -10,-56 -10,-100c0,-71 -2,-81 -18,-81c-29,0 -113,46 -163,90c-99,85 -144,188 -151,343c-3,74 -2,78 17,72c11,-3 77,-8 147,-12c123,-6 128,-7 152,-34c106,-118 290,-51 290,106c0,115 -113,194 -221,155c-15,-6 -44,-29 -64,-51c-24,-27 -48,-43 -75,-49c-52,-13 -156,-12 -189,0c-66,25 -138,110 -165,194c-45,142 -17,368 61,477l21,30l53,-51c59,-55 94,-64 119,-29c17,25 13,38 -26,97c-54,79 -70,129 -70,213c0,126 43,242 121,330c48,55 166,138 201,141c23,3 25,-1 30,-50c6,-57 18,-72 62,-72c37,0 47,22 59,128c13,120 32,179 80,251c89,133 261,243 464,296c120,32 128,33 215,31c69,-1 75,-3 87,-26zM2914,5475c174,-60 308,-217 352,-411c37,-169 -11,-322 -158,-507c-84,-104 -128,-214 -128,-318c0,-78 -1,-79 -98,-79h-85l6,143c10,218 44,320 141,426c60,66 72,104 36,116c-30,9 -105,-30 -138,-73c-16,-20 -45,-68 -64,-107l-36,-69l-36,71c-20,40 -50,88 -67,107c-67,77 -151,100 -157,45c-2,-21 10,-41 52,-89c31,-35 74,-98 95,-141c41,-82 43,-93 56,-326l5,-103h-88h-89l-6,88c-8,115 -27,173 -81,252c-195,282 -199,292 -200,465l-1,130l41,85c54,111 110,179 192,234c108,71 166,87 297,82c68,-2 129,-10 159,-21zM1771,4540c26,-14 24,-55 -3,-74c-19,-13 -25,-14 -43,-2c-27,18 -32,56 -9,73c22,16 30,16 55,3zM2975,3957c0,-117 -1,-117 -224,-117c-97,0 -186,3 -198,6c-25,7 -30,24 -39,123l-7,71l234,-2l234,-3zM2845,3680c0,-21 -63,-60 -97,-60c-42,0 -118,46 -118,72c0,5 48,7 108,6c86,-2 107,-6 107,-18zM1555,3234c88,-14 240,-46 338,-70c383,-96 529,-170 693,-347c62,-68 121,-148 98,-135c-5,3 -39,24 -77,47c-264,161 -378,193 -1012,286c-132,19 -250,37 -262,40c-22,5 -23,10 -23,104c0,54 3,101 7,105c8,8 12,7 238,-30zM4178,3163l-3,-107l-321,-47c-555,-82 -665,-114 -928,-262c-64,-36 -116,-60 -116,-54c1,24 137,177 204,231c152,121 420,219 796,290c223,43 293,54 333,55l38,1z"></path><path d="M2293,6360c-101,-32 -133,-207 -50,-275c18,-15 40,-33 50,-41c14,-11 17,-30 17,-97v-83l-63,-47c-81,-59 -98,-65 -231,-82c-61,-8 -128,-19 -150,-25c-52,-16 -116,-78 -157,-152l-34,-63l3,-124l2,-124l-43,-46c-50,-53 -64,-100 -48,-158c22,-79 106,-134 185,-119c67,13 136,96 136,163c0,28 -18,63 -74,142c-24,34 -30,56 -38,131c-11,115 -1,156 51,203c41,37 49,39 206,57c150,18 162,24 333,171l42,36v100c0,91 2,103 25,134c68,93 82,171 43,229c-41,59 -134,91 -205,70zM2384,6244c20,-8 21,-48 2,-63c-20,-17 -67,-10 -80,11c-8,13 -6,22 8,37c19,21 42,26 70,15zM1774,5111c23,-26 17,-54 -14,-61c-51,-14 -78,24 -43,62c21,23 36,23 57,-1z"></path><path d="M2034,4194c-15,-22 -16,-45 -11,-177c3,-84 10,-164 16,-179c21,-56 95,-43 107,20c8,44 -13,318 -27,343c-15,29 -65,25 -85,-7z"></path><path d="M3081,6512c-45,-24 -71,-74 -71,-135c0,-39 6,-56 33,-92c34,-44 34,-44 41,-191c7,-158 14,-180 66,-229c18,-16 92,-94 165,-171l132,-142l5,-56c5,-63 30,-99 85,-122c55,-24 105,-18 159,19c41,27 51,39 61,79c15,64 3,113 -41,157c-34,34 -40,36 -113,40l-78,3l-162,161l-163,161v90c0,115 10,150 57,198c35,36 38,43 37,92c-2,95 -43,142 -129,152c-38,4 -58,1 -84,-14z"></path><path d="M4180,4751c-51,-27 -73,-56 -79,-104l-6,-42l-121,-6c-66,-4 -131,-12 -145,-19c-13,-7 -66,-52 -118,-99c-132,-122 -180,-159 -216,-165c-46,-9 -89,-58 -88,-100c1,-44 21,-84 54,-109c54,-39 169,12 169,76c0,26 43,80 164,205l70,72h214c238,0 268,6 302,62c30,50 28,139 -5,183c-49,63 -127,81 -195,46z"></path><path d="M4045,4191c-76,-19 -101,-50 -111,-136c-8,-76 -24,-101 -127,-204l-85,-83l-104,3c-85,4 -110,8 -141,27c-72,42 -156,21 -192,-48c-21,-41 -19,-82 8,-121c45,-67 107,-76 181,-27c45,29 57,32 160,38c61,3 122,12 135,19c13,7 67,54 120,104c122,115 142,127 210,127c52,0 57,2 98,46c39,42 43,52 43,96c0,27 -6,64 -14,82c-24,57 -111,95 -181,77z"></path><path d="M2527,1970c-281,-51 -334,-72 -439,-169c-118,-109 -185,-274 -195,-478c-19,-382 162,-621 472,-625c188,-2 347,96 433,267c50,101 49,278 -1,389c-102,222 -439,292 -642,134c-22,-17 -46,-36 -54,-42c-11,-9 -13,-6 -6,14c31,105 120,222 197,258c58,27 125,39 302,57c82,8 150,16 152,17c9,10 -47,211 -58,207c-2,-1 -74,-14 -161,-29zM2466,1385c44,-18 102,-72 124,-116c28,-54 34,-107 20,-175c-32,-154 -119,-223 -267,-211c-74,6 -116,28 -160,85c-40,53 -57,108 -57,188c0,77 30,140 89,189c75,61 164,75 251,40z"></path><path d="M900,1954c-227,-61 -414,-250 -466,-471c-25,-106 -15,-277 21,-368c81,-201 246,-346 455,-401c102,-26 245,-22 355,11c126,37 200,79 275,155c199,202 245,488 119,739c-64,129 -193,251 -323,305c-106,44 -326,59 -436,30zM1167,1759c116,-20 224,-111 289,-244c35,-72 45,-209 21,-300c-31,-121 -120,-235 -220,-280c-66,-30 -176,-48 -244,-40c-121,15 -254,121 -316,252c-31,65 -32,73 -32,193c0,120 1,127 32,190c56,114 161,203 270,229c54,13 127,13 200,0z"></path><path d="M9183,1952c-7,-5 -126,-278 -264,-608c-138,-329 -253,-605 -256,-611c-4,-10 24,-13 119,-13h125l56,143l56,142l267,3c178,1 271,-1 278,-8c6,-6 34,-70 62,-143l50,-132l123,-3l123,-3l-8,23c-7,23 -159,389 -384,926l-123,292h-106c-58,0 -112,-4 -118,-8zM9316,1653c38,-90 164,-432 164,-447c0,-14 -15,-16 -97,-17c-145,-1 -277,2 -281,6c-11,11 177,495 193,495c2,0 12,-17 21,-37z"></path><path d="M10070,1340v-620h115h115v620v620h-115h-115z"></path><path d="M3435,1631c-49,-12 -114,-50 -160,-92c-23,-21 -45,-39 -49,-39c-3,0 -6,27 -6,60v60h-100h-100v-640v-641l103,3l102,3l3,244l2,243l45,-36c159,-131 388,-128 541,7c85,75 132,180 141,318c14,212 -73,397 -223,472c-78,39 -220,57 -299,38zM3591,1432c62,-32 113,-94 130,-155c6,-23 9,-82 7,-132c-3,-76 -8,-98 -33,-145c-42,-76 -103,-113 -196,-118c-85,-5 -140,19 -199,85c-49,56 -60,93 -60,209c0,76 4,98 25,140c66,133 202,181 326,116z"></path><path d="M4375,1633c-11,-2 -61,-18 -111,-35l-91,-30l-6,-91c-3,-50 -4,-93 -2,-95c2,-2 36,12 77,32c83,39 189,61 255,52c58,-8 130,-40 153,-68c24,-29 44,-108 32,-120c-5,-5 -82,-13 -170,-18c-246,-13 -277,-23 -355,-110c-53,-59 -62,-90 -55,-189c8,-112 54,-181 158,-237c28,-15 56,-19 140,-19c118,0 157,13 243,78c26,21 49,37 52,37c3,0 5,-22 5,-50v-50h105h105v203c-1,111 -5,264 -9,339c-10,163 -25,203 -107,277c-79,72 -142,94 -284,97c-63,2 -124,0 -135,-3zM4694,1083c-10,-73 -50,-150 -92,-179c-52,-35 -134,-57 -182,-49c-80,14 -127,99 -99,179c27,76 74,93 262,95l118,1z"></path><path d="M5285,1615c-139,-41 -155,-50 -155,-89c0,-34 17,-136 24,-143c2,-2 41,15 86,38c140,70 280,76 329,12c23,-28 27,-82 10,-115c-14,-26 -68,-48 -121,-48c-24,0 -60,-3 -80,-6l-38,-7v-78v-79h84c96,0 138,-12 160,-45c19,-29 21,-84 4,-119c-39,-88 -256,-88 -415,0l-63,34v-100v-99l96,-31c228,-73 459,-37 554,85c19,25 38,55 42,67c13,47 8,143 -11,183c-17,38 -73,96 -103,108c-9,3 2,19 33,46c74,65 99,163 64,249c-59,139 -284,201 -500,137z"></path><path d="M5890,1616c0,-3 60,-146 133,-318c74,-172 163,-384 198,-470l63,-158l-20,-27c-40,-53 -107,-90 -178,-98l-66,-7v-99v-99l48,6c122,14 191,35 245,75c85,63 121,120 211,336c104,250 336,837 336,852c0,7 -36,11 -114,11h-113l-65,-182c-36,-101 -89,-255 -118,-343l-53,-160l-17,38c-10,22 -69,176 -131,343l-114,304h-122c-68,0 -123,-2 -123,-4z"></path><path d="M7000,1170v-450h100h100l1,78c1,42 4,183 8,312l6,235l124,-229l124,-228l51,6c28,3 61,6 73,6c18,0 43,38 146,225l124,225l6,-157c4,-87 7,-229 7,-315v-158h105h105v450v451l-132,-3l-133,-3l-115,-206c-164,-293 -159,-285 -175,-268c-7,8 -41,66 -75,129c-34,63 -91,168 -127,233l-65,117h-129h-129z"></path><path d="M8354,960c-29,-12 -53,-53 -60,-102c-10,-76 49,-138 131,-138c52,0 84,17 112,59c43,64 23,140 -47,176c-31,16 -102,19 -136,5z"></path></g></g></g></svg>